<?xml version="1.0" standalone="no"?>
<!DOCTYPE svg PUBLIC "-//W3C//DTD SVG 20010904//EN"
 "http://www.w3.org/TR/2001/REC-SVG-20010904/DTD/svg10.dtd">
<svg version="1.0" xmlns="http://www.w3.org/2000/svg"
 width="1858.000000pt" height="1152.000000pt" viewBox="0 0 1858.000000 1152.000000"
 preserveAspectRatio="xMidYMid meet">

<g transform="translate(0.000000,1152.000000) scale(0.100000,-0.100000)"
fill="#000000" stroke="none">
<path d="M9960 9915 c-30 -9 -77 -29 -104 -46 -181 -112 -1498 -1018 -1533
-1055 -127 -135 -105 -336 54 -492 90 -88 405 -299 493 -329 93 -32 192 -31
301 4 74 23 100 27 224 27 131 0 146 -2 230 -31 177 -61 303 -160 366 -289 30
-60 34 -77 33 -144 0 -53 -7 -91 -22 -128 -12 -29 -22 -69 -22 -90 0 -50 39
-129 86 -174 61 -57 348 -244 412 -268 139 -53 268 -59 397 -19 89 27 139 64
249 182 l99 107 31 -21 c59 -39 211 -107 278 -123 239 -59 485 6 611 160 80
99 116 229 97 351 -23 139 -102 279 -218 384 l-60 53 76 81 c93 99 117 147
116 235 -1 84 -31 159 -91 235 -35 42 -247 216 -753 617 -826 655 -845 670
-919 707 -135 68 -320 97 -431 66z m271 -189 c31 -7 77 -24 101 -38 42 -23
1497 -1157 1561 -1217 55 -50 80 -129 59 -184 -4 -9 -74 -87 -155 -171 -81
-85 -147 -158 -147 -163 0 -4 48 -32 107 -62 167 -85 256 -189 283 -331 28
-147 -67 -289 -223 -335 -65 -19 -187 -19 -261 0 -104 27 -166 65 -267 163
l-97 93 -178 -186 c-142 -147 -187 -188 -223 -202 -64 -25 -163 -23 -224 5
-43 19 -282 176 -315 206 -10 10 -8 24 9 72 15 43 21 83 21 149 0 160 -59 291
-192 425 -151 154 -352 252 -593 290 -110 18 -330 8 -424 -19 -40 -12 -84 -21
-98 -21 -26 0 -91 40 -277 172 -112 79 -148 127 -148 199 0 25 8 57 18 74 12
19 279 214 733 536 393 278 726 514 742 524 53 34 107 40 188 21z"/>
<path d="M12700 7846 c-26 -7 -62 -22 -81 -34 -41 -25 -203 -216 -219 -257
-20 -52 -11 -99 36 -196 41 -82 47 -104 52 -174 5 -101 -18 -164 -85 -226 -93
-85 -214 -115 -353 -85 -185 39 -217 24 -399 -198 -105 -128 -124 -178 -119
-301 8 -167 75 -262 286 -404 67 -45 122 -84 122 -87 0 -2 -11 -27 -25 -54
-41 -81 -58 -171 -53 -285 8 -168 68 -303 189 -425 251 -254 644 -266 885 -26
l72 71 123 -82 c142 -95 196 -116 295 -117 60 0 81 5 135 31 111 55 70 -9 586
923 132 239 246 452 253 474 7 23 11 69 8 116 -6 96 -44 184 -114 257 -56 58
-1238 995 -1300 1030 -95 53 -206 72 -294 49z m222 -190 c18 -8 155 -110 303
-227 149 -117 433 -340 632 -495 306 -240 364 -290 382 -327 43 -89 55 -63
-333 -742 -195 -341 -365 -630 -378 -642 -29 -27 -89 -53 -123 -53 -45 0 -92
27 -286 160 -105 71 -192 130 -195 130 -2 0 -21 -35 -41 -77 -22 -47 -55 -96
-83 -123 -140 -141 -378 -152 -549 -26 -62 46 -103 97 -139 173 -24 51 -27 70
-27 158 0 89 3 106 27 155 15 30 54 86 87 124 33 38 58 72 56 76 -3 4 -89 65
-192 135 -104 71 -208 144 -232 163 -74 60 -102 159 -63 229 22 41 173 230
189 237 7 3 43 -1 80 -9 130 -28 283 -12 391 41 84 41 166 124 209 212 35 69
38 83 41 177 5 117 -9 177 -64 287 l-35 69 77 94 c51 62 89 99 113 110 40 17
102 14 153 -9z"/>
<path d="M8623 6850 c-13 -5 -23 -16 -23 -24 0 -22 -49 -56 -82 -56 -19 0 -40
10 -57 28 -26 26 -30 27 -79 17 -28 -5 -54 -13 -57 -17 -4 -4 15 -29 42 -56
35 -35 61 -52 95 -60 122 -31 226 26 256 141 l10 37 -41 -1 c-23 0 -52 -4 -64
-9z"/>
<path d="M8726 6661 c-63 -10 -102 -21 -108 -31 -5 -8 -26 -78 -47 -155 -43
-155 -41 -156 -66 24 -8 63 -16 115 -18 117 -4 3 -206 -31 -211 -36 -3 -3 -1
-35 4 -70 10 -76 12 -96 41 -345 12 -104 23 -192 25 -194 4 -5 224 25 228 31
1 1 19 66 41 143 21 77 41 146 45 153 3 7 14 -50 24 -128 10 -77 21 -140 25
-140 29 2 204 30 208 34 6 5 -66 596 -74 608 -2 5 -7 7 -11 7 -4 -1 -52 -9
-106 -18z"/>
<path d="M5478 6507 c-2 -29 -5 -140 -6 -247 -1 -107 -5 -220 -8 -251 -4 -31
-2 -59 3 -62 5 -3 99 -7 208 -8 l200 -2 3 80 3 80 -32 7 c-17 3 -62 6 -100 6
l-69 0 0 36 0 36 90 -5 90 -6 0 79 0 79 -82 3 c-82 3 -83 3 -86 31 l-3 27 104
0 104 0 2 85 2 85 -210 0 -209 -1 -4 -52z"/>
<path d="M8090 6554 c-8 -2 -46 -6 -83 -9 l-69 -7 6 -91 c9 -128 14 -220 22
-379 l6 -138 37 0 c20 0 67 3 105 7 l69 6 -7 151 c-5 126 -15 332 -20 436 -1
25 -19 31 -66 24z"/>
<path d="M5165 6542 l-50 -3 3 -77 c5 -101 -10 -160 -45 -173 -34 -13 -81 -2
-93 21 -6 10 -10 67 -10 126 l0 107 -67 -7 c-38 -3 -87 -6 -110 -6 l-43 0 0
-129 c0 -143 7 -171 52 -217 56 -59 181 -71 266 -26 l42 22 0 -131 0 -130 78
2 c42 1 95 4 116 7 l39 5 -6 191 c-4 105 -7 244 -7 309 l0 118 -57 -3 c-32 -2
-81 -4 -108 -6z"/>
<path d="M6060 6535 c0 -13 -32 -313 -44 -415 -17 -139 -18 -190 -5 -190 8 0
95 -3 194 -7 194 -6 238 0 284 41 68 61 68 208 -1 277 -32 31 -104 57 -186 66
-52 6 -53 6 -50 37 2 17 8 30 13 30 6 -1 51 -5 101 -8 l91 -7 6 77 c4 43 6 78
5 80 -2 1 -34 5 -73 8 -66 6 -324 26 -331 26 -2 0 -4 -7 -4 -15z m256 -386
c18 -15 18 -53 -1 -69 -13 -11 -81 -17 -90 -8 -2 1 -1 25 2 52 l6 48 34 -5
c19 -4 41 -11 49 -18z"/>
<path d="M4565 6523 c-90 -11 -94 -13 -117 -56 -12 -23 -33 -73 -48 -111 l-27
-69 -17 44 c-10 24 -29 70 -44 103 l-26 59 -85 -6 c-105 -8 -151 -17 -151 -29
0 -5 37 -89 81 -186 45 -97 87 -190 94 -207 12 -27 10 -38 -21 -114 -19 -47
-33 -85 -31 -86 1 -1 55 2 119 8 l118 10 76 150 c82 162 208 438 217 475 5 21
2 22 -51 21 -32 -1 -70 -4 -87 -6z"/>
<path d="M6673 6488 c-6 -7 -11 -50 -12 -96 -1 -45 -4 -91 -6 -101 -2 -10 -7
-106 -11 -213 l-7 -195 84 -2 c46 -2 96 -4 112 -6 26 -3 27 -1 27 38 0 23 3
72 7 110 l6 67 65 0 64 0 -3 -107 -4 -108 111 -3 111 -3 7 113 c3 62 9 199 12
303 4 105 9 194 11 198 3 4 -46 6 -108 5 l-113 -3 -2 -30 c-2 -16 -6 -60 -9
-97 l-7 -68 -65 0 -65 0 7 105 7 105 -105 0 c-72 0 -108 -4 -114 -12z"/>
<path d="M7391 6493 l-34 -4 7 -182 c3 -100 9 -238 13 -306 l6 -123 101 6
c256 18 341 39 390 97 67 79 25 245 -73 286 -28 12 -58 14 -133 10 -88 -6 -98
-4 -98 11 -1 39 -11 169 -16 190 -4 20 -10 22 -67 20 -34 0 -77 -3 -96 -5z
m289 -363 c24 -24 25 -38 3 -62 -11 -12 -30 -18 -60 -18 l-43 0 0 50 0 50 40
0 c27 0 47 -7 60 -20z"/>
<path d="M10977 5725 c-69 -19 -146 -59 -196 -101 -24 -21 -91 -94 -149 -163
-58 -69 -108 -126 -111 -125 -3 0 -49 21 -101 46 -188 92 -386 115 -605 72
-213 -43 -388 -137 -533 -288 -91 -95 -149 -188 -188 -301 -25 -71 -28 -95
-29 -210 0 -110 4 -141 23 -200 52 -154 149 -281 283 -370 l69 -47 -30 -36
c-16 -21 -81 -99 -143 -174 -161 -195 -207 -297 -207 -458 0 -137 45 -244 139
-338 51 -50 130 -91 1123 -588 606 -303 1093 -541 1125 -549 189 -49 394 21
548 187 63 67 68 75 365 613 100 182 241 436 313 565 71 129 141 255 155 280
13 25 87 158 163 295 86 157 144 272 154 310 40 155 -4 330 -110 439 -49 50
-287 209 -339 226 -21 7 -64 10 -97 8 -50 -4 -68 -11 -126 -51 -91 -63 -160
-88 -260 -94 -136 -9 -247 32 -345 128 -67 66 -105 139 -121 235 -9 54 -8 79
7 155 22 107 17 154 -25 227 -27 48 -47 64 -187 156 -86 57 -171 110 -187 119
-89 45 -274 61 -378 32z m255 -229 c45 -16 299 -176 305 -192 2 -7 -3 -46 -11
-87 -20 -96 -20 -148 0 -245 42 -204 174 -375 359 -466 103 -51 184 -70 300
-70 146 0 259 37 387 127 33 22 64 37 72 34 9 -4 72 -43 141 -88 98 -63 131
-91 149 -123 30 -52 39 -103 27 -156 -5 -25 -231 -430 -547 -983 -398 -696
-549 -953 -582 -985 -23 -24 -68 -55 -98 -69 -47 -21 -67 -25 -127 -21 l-72 3
-1020 524 c-561 288 -1035 536 -1054 550 -77 60 -101 185 -53 281 12 25 132
182 268 348 135 167 243 306 240 309 -2 3 -56 20 -119 37 -152 43 -219 78
-295 153 -103 102 -146 228 -123 365 32 192 191 364 410 442 81 29 94 31 231
31 126 0 154 -3 210 -24 94 -33 173 -84 249 -162 l68 -68 25 27 c14 15 91 110
173 212 205 256 225 276 305 301 40 12 142 9 182 -5z"/>
<path d="M5504 5589 c-10 -16 -11 -29 -24 -321 -7 -142 -10 -264 -6 -273 4
-12 26 -15 116 -15 60 0 110 1 110 3 0 1 3 99 6 217 3 118 7 221 9 228 3 8 28
12 80 12 l75 0 0 80 0 80 -179 0 c-124 0 -182 -4 -187 -11z"/>
<path d="M6163 5590 c-69 -14 -129 -46 -175 -92 -63 -62 -91 -126 -96 -217 -5
-101 21 -172 89 -242 163 -168 442 -122 546 90 37 74 39 190 6 263 -63 139
-228 227 -370 198z m131 -221 c56 -44 70 -110 36 -166 -38 -62 -100 -83 -161
-52 -114 57 -73 239 55 239 29 0 52 -7 70 -21z"/>
<path d="M6705 5527 c-2 -6 -8 -87 -13 -179 -11 -178 -16 -195 -75 -266 -34
-40 -35 -43 -36 -138 -1 -53 -2 -99 -3 -103 -4 -40 -1 -41 107 -41 l105 0 0
55 0 55 100 0 100 0 0 -59 0 -60 101 -3 c82 -2 102 0 109 12 4 8 10 70 13 138
6 104 4 124 -8 129 -13 4 -14 18 -10 72 3 36 10 118 15 181 5 63 10 134 10
157 0 42 0 42 -42 47 -24 3 -139 8 -256 11 -165 4 -214 2 -217 -8z m275 -308
l0 -139 -75 0 c-41 0 -75 3 -75 7 0 3 7 14 16 24 11 12 22 59 32 133 16 124
19 128 80 118 22 -4 22 -7 22 -143z"/>
</g>
</svg>
