<?xml version="1.0" standalone="no"?>
<!DOCTYPE svg PUBLIC "-//W3C//DTD SVG 20010904//EN"
 "http://www.w3.org/TR/2001/REC-SVG-20010904/DTD/svg10.dtd">
<svg version="1.0" xmlns="http://www.w3.org/2000/svg"
 width="512.000000pt" height="512.000000pt" viewBox="0 0 512.000000 512.000000"
 preserveAspectRatio="xMidYMid meet">

<g transform="translate(0.000000,512.000000) scale(0.100000,-0.100000)"
fill="#000000" stroke="none">
<path d="M2672 4056 l3 -1068 48 -18 c103 -39 202 -141 244 -252 26 -69 24
-218 -5 -293 -46 -123 -155 -224 -279 -260 -91 -27 -210 -18 -296 22 -219 103
-312 356 -210 571 40 86 120 164 208 203 l75 34 0 1058 c0 909 -2 1057 -14
1057 -29 0 -76 -75 -117 -189 -198 -544 -514 -1090 -963 -1661 -114 -146 -193
-239 -433 -512 -34 -39 -67 -86 -74 -105 -26 -79 -18 -102 321 -893 178 -415
335 -773 349 -795 17 -26 44 -49 80 -67 l55 -28 890 0 c591 0 904 4 929 11 50
13 103 61 131 118 45 90 645 1498 657 1542 10 36 9 54 -4 100 -14 47 -34 74
-134 185 -621 683 -1081 1406 -1338 2105 -37 102 -53 133 -85 164 l-40 39 2
-1068z"/>
<path d="M1185 621 c-51 -23 -101 -79 -114 -128 -6 -21 -11 -138 -11 -265 l0
-228 1500 0 1501 0 -3 253 c-3 252 -3 254 -28 290 -14 21 -43 50 -64 65 l-39
27 -1351 2 c-1290 3 -1353 2 -1391 -16z"/>
</g>
</svg>
